<svg id="Layer_1" data-name="Layer 1" xmlns="http://www.w3.org/2000/svg" viewBox="0 0 171.42 88.89"><defs><style>.cls-1{fill:#383938;}</style></defs><rect class="cls-1" y="64.95" width="6.35" height="23.93"/><rect class="cls-1" x="31.75" width="6.35" height="88.88"/><rect class="cls-1" x="44.45" width="6.35" height="13.68"/><rect class="cls-1" x="31.75" width="19.04" height="6.35"/><rect class="cls-1" x="31.75" y="12.7" width="19.04" height="6.35"/><rect class="cls-1" y="82.54" width="38.09" height="6.35"/><rect class="cls-1" y="63.49" width="38.09" height="6.35"/><rect class="cls-1" x="50.8" y="63.49" width="120.63" height="6.35"/><polygon class="cls-1" points="50.8 19.05 50.8 32.6 80.62 88.89 87.8 88.89 50.8 19.05"/><polygon class="cls-1" points="76.41 19.05 76.41 25.4 111.65 25.4 73.48 63.6 79.89 66.13 120.64 25.4 120.64 19.05 76.41 19.05"/><polygon class="cls-1" points="126.98 19.05 126.98 25.4 162.44 25.4 124.07 63.91 130.69 66.13 171.42 25.4 171.42 19.05 126.98 19.05"/></svg>