<?xml version="1.0" encoding="utf-8"?>
<!-- Generator: Adobe Illustrator 24.2.1, SVG Export Plug-In . SVG Version: 6.00 Build 0)  -->
<svg version="1.1" id="Camada_1" xmlns="http://www.w3.org/2000/svg" xmlns:xlink="http://www.w3.org/1999/xlink" x="0px" y="0px"
	 viewBox="0 0 302.98 145.49" style="enable-background:new 0 0 302.98 145.49;" xml:space="preserve">
<style type="text/css">
	.st0{fill:#FAFAFA;}
	.st1{fill:#BE1622;}
	.st2{fill:#F9B233;}
</style>
<g id="XMLID_1115_">
	<rect id="XMLID_1101_" x="32.58" y="99.33" class="st0" width="8.12" height="30.61"/>
	<rect id="XMLID_1099_" x="73.19" y="16.24" class="st0" width="8.12" height="113.7"/>
	<rect id="XMLID_1098_" x="89.44" y="16.24" class="st0" width="8.12" height="17.5"/>
	<rect id="XMLID_1097_" x="73.19" y="16.24" class="st0" width="24.36" height="8.12"/>
	<rect id="XMLID_1096_" x="73.19" y="32.49" class="st0" width="24.36" height="8.12"/>
	<rect id="XMLID_1095_" x="32.58" y="121.83" class="st0" width="48.73" height="8.12"/>
	<rect id="XMLID_1094_" x="32.58" y="97.46" class="st0" width="48.73" height="8.12"/>
	<rect id="XMLID_1093_" x="97.56" y="97.46" class="st0" width="154.31" height="8.12"/>
	<polygon id="XMLID_1092_" class="st0" points="97.56,40.61 97.56,57.94 135.71,129.95 144.9,129.95 	"/>
	<polygon id="XMLID_1091_" class="st0" points="130.33,40.61 130.33,48.73 175.41,48.73 126.58,97.6 134.78,100.84 186.9,48.73 
		186.9,40.61 	"/>
	<polygon id="XMLID_1090_" class="st0" points="195.02,40.61 195.02,48.73 240.38,48.73 191.29,97.99 199.76,100.84 251.87,48.73 
		251.87,40.61 	"/>
</g>
<g id="XMLID_1806_">
	<rect id="XMLID_1815_" x="-1077.85" y="103.39" class="st1" width="41.62" height="22.49"/>
	<rect id="XMLID_1814_" x="-1080.9" y="99.33" width="8.12" height="30.61"/>
	<rect id="XMLID_1813_" x="-1034.51" y="19.4" class="st2" width="14.99" height="14.34"/>
	<rect id="XMLID_1812_" x="-1040.29" y="16.24" width="8.12" height="113.7"/>
	<rect id="XMLID_1811_" x="-1024.04" y="16.24" width="8.12" height="17.5"/>
	<rect id="XMLID_1810_" x="-1040.29" y="16.24" width="24.36" height="8.12"/>
	<rect id="XMLID_1809_" x="-1040.29" y="32.49" width="24.36" height="8.12"/>
	<rect id="XMLID_1808_" x="-1080.9" y="121.83" width="48.73" height="8.12"/>
	<rect id="XMLID_1807_" x="-1080.9" y="97.46" width="48.73" height="8.12"/>
</g>
</svg>
